<svg width="20" height="20" viewBox="0 0 20 20" fill="none" xmlns="http://www.w3.org/2000/svg">
<g clip-path="url(#clip0_160_21)">
<path fill-rule="evenodd" clip-rule="evenodd" d="M2.35773 7.39394C1.72483 8.17301 1.20813 9.05059 0.833984 10C2.27565 13.6583 5.83398 16.25 10.0007 16.25C11.8943 16.25 13.6624 15.7147 15.1632 14.7872L13.4812 13.8161C12.4182 14.3129 11.2367 14.5833 10.0007 14.5833C6.83398 14.5833 4.02565 12.8083 2.65065 10C2.96691 9.35406 3.35944 8.76279 3.81486 8.23521L2.35773 7.39394ZM6.26679 9.65084C6.25611 9.76582 6.25065 9.88229 6.25065 10C6.25065 12.0667 7.93398 13.75 10.0007 13.75C10.8073 13.75 11.5555 13.4936 12.1681 13.058L10.4102 12.043C10.2778 12.0695 10.1408 12.0833 10.0007 12.0833C9.0838 12.0833 8.30467 11.4901 8.02644 10.6668L6.26679 9.65084ZM9.59088 7.95701L7.83307 6.94214C8.44564 6.50648 9.19394 6.25 10.0007 6.25C12.0673 6.25 13.7506 7.93333 13.7506 10C13.7506 10.1178 13.7452 10.2343 13.7345 10.3493L11.9749 9.33344C11.6968 8.51002 10.9176 7.91667 10.0007 7.91667C9.8604 7.91667 9.72338 7.93055 9.59088 7.95701ZM16.187 11.7653C16.642 11.2376 17.0343 10.6461 17.3506 10C15.9756 7.19167 13.159 5.41667 10.0007 5.41667C8.76697 5.41667 7.58542 5.68749 6.52156 6.18494L4.83798 5.21292C6.3388 4.28537 8.10689 3.75 10.0007 3.75C14.1673 3.75 17.7256 6.34167 19.1673 10C18.7932 10.9495 18.2764 11.8271 17.6435 12.6062L16.187 11.7653Z" fill="#A3AED0"/>
<rect x="1.91797" y="4.1781" width="19.8235" height="2" rx="1" transform="rotate(30 1.91797 4.1781)" fill="#A3AED0"/>
</g>
<defs>
<clipPath id="clip0_160_21">
<rect width="20" height="20" fill="white"/>
</clipPath>
</defs>
</svg>
