<svg width="56" height="56" viewBox="0 0 56 56" fill="none" xmlns="http://www.w3.org/2000/svg">
<circle cx="28" cy="28" r="28" fill="#F4F7FE"/>
<path d="M34.197 44.6679C30.9993 45.9924 27.4806 46.339 24.0859 45.6637C20.6913 44.9885 17.5731 43.3218 15.1256 40.8744C12.6782 38.4269 11.0115 35.3087 10.3363 31.9141C9.66102 28.5194 10.0076 25.0007 11.3321 21.803C12.6566 18.6053 14.8997 15.8722 17.7775 13.9493C20.6554 12.0264 24.0388 11 27.5 11C28.1743 11 28.7209 11.5466 28.7209 12.2209C28.7209 12.8952 28.1743 13.4419 27.5 13.4419C24.5218 13.4419 21.6104 14.325 19.1342 15.9796C16.6579 17.6342 14.7278 19.986 13.5881 22.7375C12.4484 25.489 12.1502 28.5167 12.7312 31.4377C13.3122 34.3587 14.7464 37.0418 16.8523 39.1477C18.9582 41.2536 21.6413 42.6878 24.5623 43.2688C27.4833 43.8498 30.511 43.5516 33.2625 42.4119C36.014 41.2722 38.3658 39.3421 40.0204 36.8658C41.675 34.3896 42.5581 31.4782 42.5581 28.5C42.5581 27.8257 43.1048 27.2791 43.7791 27.2791C44.4534 27.2791 45 27.8257 45 28.5C45 31.9612 43.9736 35.3446 42.0507 38.2225C40.1278 41.1003 37.3947 43.3433 34.197 44.6679Z" fill="#4318FF"/>
<path d="M31.8741 11.5512C31.2211 11.3832 30.5555 11.7763 30.3874 12.4293C30.2193 13.0823 30.6124 13.7479 31.2654 13.916C36.5551 15.2775 40.7223 19.4447 42.0838 24.7344C42.2519 25.3874 42.9175 25.7805 43.5705 25.6125C44.2236 25.4444 44.6167 24.7788 44.4486 24.1257C42.8654 17.9744 38.0254 13.1345 31.8741 11.5512Z" fill="#4318FF"/>
</svg>
