<svg width="24" height="24" viewBox="0 0 24 24" fill="none" xmlns="http://www.w3.org/2000/svg">
<path d="M16.1962 8.04734C14.7955 7.05283 13.0659 7.51694 12.1321 8.6551C11.1983 7.51694 9.46862 7.04731 8.06793 8.04734C7.32514 8.57775 6.85824 9.4728 6.8264 10.4176C6.75213 12.5613 8.57727 14.2796 11.3627 16.915L11.4158 16.9648C11.819 17.346 12.4398 17.346 12.843 16.9592L12.9014 16.904C15.6868 14.2741 17.5067 12.5558 17.4377 10.4121C17.4059 9.4728 16.939 8.57775 16.1962 8.04734V8.04734ZM12.1851 16.0918L12.1321 16.1471L12.079 16.0918C9.55351 13.7105 7.88753 12.1359 7.88753 10.5391C7.88753 9.43413 8.68338 8.60537 9.74451 8.60537C10.5616 8.60537 11.3574 9.15235 11.6386 9.90928H12.6308C12.9067 9.15235 13.7025 8.60537 14.5196 8.60537C15.5807 8.60537 16.3766 9.43413 16.3766 10.5391C16.3766 12.1359 14.7106 13.7105 12.1851 16.0918Z" fill="#4318FF"/>
<path d="M10.9421 8.47058C11.5068 8.47058 12.1186 9.41176 12.3539 9.88235L13.4127 8.82352L14.4715 8.47058L15.1774 8.82352L16.2362 9.5294L16.5892 10.5882L15.5303 12.7059L12.0009 16.2353L8.47151 12.7059L7.76562 10.9412L8.11857 9.17646L9.17739 8.47058H10.9421Z" fill="#4318FF" stroke="#4318FF"/>
</svg>
