<svg width="51" height="51" viewBox="0 0 51 51" fill="none" xmlns="http://www.w3.org/2000/svg">
<path d="M25.5 44.625C22.9885 44.625 20.5015 44.1303 18.1812 43.1692C15.8608 42.2081 13.7525 40.7993 11.9766 39.0234C10.2007 37.2475 8.79192 35.1392 7.8308 32.8188C6.86968 30.4985 6.375 28.0115 6.375 25.5C6.375 22.9885 6.86968 20.5015 7.8308 18.1812C8.79193 15.8608 10.2007 13.7525 11.9766 11.9766C13.7525 10.2007 15.8608 8.79192 18.1812 7.8308C20.5015 6.86968 22.9885 6.375 25.5 6.375C28.0115 6.375 30.4985 6.86968 32.8188 7.83081C35.1392 8.79193 37.2475 10.2007 39.0234 11.9766C40.7993 13.7525 42.2081 15.8608 43.1692 18.1812C44.1303 20.5015 44.625 22.9885 44.625 25.5C44.625 28.0115 44.1303 30.4985 43.1692 32.8188C42.2081 35.1392 40.7993 37.2475 39.0234 39.0234C37.2475 40.7993 35.1392 42.2081 32.8188 43.1692C30.4985 44.1303 28.0115 44.625 25.5 44.625L25.5 44.625Z" stroke="#11047A" stroke-linecap="round"/>
<path d="M19.125 19.125L31.875 31.875" stroke="#11047A" stroke-linecap="round"/>
<path d="M31.875 19.125L19.125 31.875" stroke="#11047A" stroke-linecap="round"/>
</svg>
