<svg width="24" height="24" viewBox="0 0 24 24" fill="none" xmlns="http://www.w3.org/2000/svg">
<path fill-rule="evenodd" clip-rule="evenodd" d="M11.5014 4.87813C11.1818 5.29548 10.8187 5.94296 10.2831 6.9039L10.0121 7.39008C9.99459 7.42145 9.97727 7.45264 9.96008 7.48361C9.7157 7.92385 9.49474 8.32189 9.13736 8.59321C8.77569 8.86779 8.33567 8.96648 7.85915 9.07335C7.82564 9.08087 7.79194 9.08843 7.75808 9.09609L7.23183 9.21517C6.18999 9.45091 5.49374 9.6106 5.01972 9.79741C4.55946 9.97881 4.49778 10.1136 4.47444 10.1887C4.44864 10.2717 4.42732 10.4335 4.70348 10.8723C4.98461 11.3189 5.46132 11.8793 6.17035 12.7084L6.52911 13.128C6.55151 13.1542 6.57378 13.1801 6.59589 13.2059C6.92394 13.5883 7.21659 13.9295 7.35105 14.3619C7.48461 14.7914 7.4403 15.2415 7.39003 15.7522C7.38664 15.7866 7.38323 15.8213 7.37984 15.8563L7.3256 16.4161C7.2185 17.5214 7.14769 18.2706 7.1716 18.8075C7.19546 19.3431 7.30767 19.4516 7.35952 19.4909C7.39947 19.5213 7.50667 19.5999 7.98584 19.4626C8.47438 19.3226 9.12789 19.024 10.1034 18.5748L10.5962 18.3479C10.6285 18.333 10.6607 18.3181 10.6927 18.3033C11.1356 18.0983 11.5484 17.9072 12 17.9072C12.4516 17.9072 12.8644 18.0983 13.3073 18.3033C13.3393 18.3181 13.3715 18.333 13.4038 18.3479L13.8966 18.5748C14.8721 19.024 15.5256 19.3226 16.0142 19.4626C16.4933 19.5999 16.6005 19.5213 16.6405 19.4909C16.6923 19.4516 16.8045 19.3431 16.8284 18.8075C16.8523 18.2706 16.7815 17.5214 16.6744 16.4161L16.6202 15.8563C16.6168 15.8213 16.6134 15.7866 16.61 15.7522C16.5597 15.2415 16.5154 14.7914 16.6489 14.3619C16.7834 13.9295 17.0761 13.5883 17.4041 13.2059C17.4262 13.1801 17.4485 13.1542 17.4709 13.128L17.8297 12.7084C18.5387 11.8793 19.0154 11.3189 19.2965 10.8723C19.5727 10.4335 19.5514 10.2717 19.5256 10.1887C19.5022 10.1136 19.4405 9.97881 18.9803 9.79741C18.5063 9.6106 17.81 9.45091 16.7682 9.21517L16.2419 9.09609C16.2081 9.08843 16.1744 9.08087 16.1408 9.07335C15.6643 8.96648 15.2243 8.86779 14.8626 8.59321C14.5053 8.32189 14.2843 7.92385 14.0399 7.48361C14.0227 7.45264 14.0054 7.42145 13.9879 7.39008L13.7169 6.9039C13.1813 5.94296 12.8182 5.29548 12.4986 4.87813C12.1794 4.46125 12.0416 4.45948 12 4.45948C11.9584 4.45948 11.8206 4.46125 11.5014 4.87813ZM10.3427 3.99077C10.743 3.46803 11.2586 3 12 3C12.7414 3 13.257 3.46803 13.6573 3.99077C14.0496 4.50302 14.4636 5.24585 14.9623 6.14061L15.2626 6.67946C15.592 7.27037 15.6635 7.3688 15.745 7.43074C15.822 7.4892 15.9232 7.52761 16.564 7.67259L17.1506 7.80533C18.1162 8.02377 18.9241 8.20655 19.5154 8.43957C20.1326 8.68285 20.7005 9.05216 20.9191 9.7553C21.1353 10.4505 20.8883 11.0831 20.5316 11.6498C20.1865 12.1979 19.6379 12.8395 18.9774 13.6118L18.58 14.0765C18.1466 14.5834 18.0763 14.6867 18.0425 14.7953C18.0078 14.9069 18.0073 15.0398 18.0727 15.7155L18.1326 16.3335C18.2327 17.3658 18.3154 18.2194 18.2863 18.8724C18.2566 19.5389 18.1045 20.2118 17.5229 20.6534C16.9293 21.104 16.2437 21.0466 15.6122 20.8656C15.0028 20.691 14.2468 20.3429 13.343 19.9266L12.7935 19.6736C12.1911 19.3962 12.0894 19.3667 12 19.3667C11.9106 19.3667 11.8089 19.3962 11.2065 19.6736L10.657 19.9266C9.7532 20.3429 8.9972 20.691 8.38781 20.8656C7.75634 21.0466 7.07066 21.104 6.47712 20.6534C5.89548 20.2118 5.74335 19.5389 5.71367 18.8724C5.68458 18.2194 5.76732 17.3658 5.86738 16.3336L5.92726 15.7155C5.99274 15.0398 5.99222 14.9069 5.9575 14.7953C5.92375 14.6867 5.85344 14.5834 5.41998 14.0765L5.02259 13.6118C4.36212 12.8395 3.81348 12.1979 3.46844 11.6498C3.11174 11.0831 2.86473 10.4505 3.08089 9.7553C3.29953 9.05216 3.86737 8.68285 4.48465 8.43957C5.0759 8.20655 5.88384 8.02377 6.84939 7.80533L7.43603 7.67259C8.07678 7.52761 8.17795 7.4892 8.25496 7.43074C8.33655 7.3688 8.40799 7.27037 8.73737 6.67946L9.03772 6.14061C9.53643 5.24584 9.95045 4.50302 10.3427 3.99077Z" fill="#4318FF"/>
</svg>
