<svg width="24" height="24" viewBox="0 0 24 24" fill="none" xmlns="http://www.w3.org/2000/svg">
<path fill-rule="evenodd" clip-rule="evenodd" d="M9.80488 3C7.50145 3 5.63415 4.8673 5.63415 7.17073C5.63415 9.47416 7.50145 11.3415 9.80488 11.3415C12.1083 11.3415 13.9756 9.47416 13.9756 7.17073C13.9756 4.8673 12.1083 3 9.80488 3ZM6.95122 7.17073C6.95122 5.5947 8.22885 4.31707 9.80488 4.31707C11.3809 4.31707 12.6585 5.5947 12.6585 7.17073C12.6585 8.74676 11.3809 10.0244 9.80488 10.0244C8.22885 10.0244 6.95122 8.74676 6.95122 7.17073Z" fill="#4318FF"/>
<path d="M15.0732 3.87805C14.7095 3.87805 14.4146 4.17289 14.4146 4.53659C14.4146 4.90029 14.7095 5.19512 15.0732 5.19512C16.1643 5.19512 17.0488 6.07963 17.0488 7.17073C17.0488 8.26183 16.1643 9.14634 15.0732 9.14634C14.7095 9.14634 14.4146 9.44118 14.4146 9.80488C14.4146 10.1686 14.7095 10.4634 15.0732 10.4634C16.8917 10.4634 18.3659 8.98923 18.3659 7.17073C18.3659 5.35223 16.8917 3.87805 15.0732 3.87805Z" fill="#4318FF"/>
<path fill-rule="evenodd" clip-rule="evenodd" d="M5.13203 13.774C6.36075 13.0719 8.01424 12.6585 9.80488 12.6585C11.5955 12.6585 13.249 13.0719 14.4777 13.774C15.6878 14.4655 16.6098 15.5211 16.6098 16.8293C16.6098 18.1374 15.6878 19.1931 14.4777 19.8845C13.249 20.5867 11.5955 21 9.80488 21C8.01424 21 6.36075 20.5867 5.13203 19.8845C3.92195 19.1931 3 18.1374 3 16.8293C3 15.5211 3.92195 14.4655 5.13203 13.774ZM5.78548 14.9175C4.77103 15.4972 4.31707 16.1977 4.31707 16.8293C4.31707 17.4608 4.77103 18.1613 5.78548 18.741C6.78131 19.31 8.20098 19.6829 9.80488 19.6829C11.4088 19.6829 12.8284 19.31 13.8243 18.741C14.8387 18.1613 15.2927 17.4608 15.2927 16.8293C15.2927 16.1977 14.8387 15.4972 13.8243 14.9175C12.8284 14.3485 11.4088 13.9756 9.80488 13.9756C8.20098 13.9756 6.78131 14.3485 5.78548 14.9175Z" fill="#4318FF"/>
<path d="M17.8484 13.5519C17.4931 13.474 17.142 13.6988 17.0641 14.0541C16.9862 14.4093 17.211 14.7605 17.5663 14.8384C18.262 14.9909 18.818 15.253 19.185 15.5533C19.5524 15.854 19.6829 16.1476 19.6829 16.3902C19.6829 16.6104 19.577 16.8688 19.2851 17.14C18.991 17.4132 18.5392 17.6656 17.9565 17.841C17.6082 17.9459 17.4109 18.3132 17.5158 18.6615C17.6206 19.0097 17.988 19.207 18.3362 19.1022C19.0585 18.8847 19.7042 18.5483 20.1815 18.105C20.6608 17.6597 21 17.0739 21 16.3902C21 15.6309 20.5836 14.9959 20.0191 14.534C19.454 14.0716 18.693 13.7371 17.8484 13.5519Z" fill="#4318FF"/>
</svg>
