<svg width="24" height="24" viewBox="0 0 24 24" fill="none" xmlns="http://www.w3.org/2000/svg">
<path d="M7.5 10.5H10.5" stroke="#4318FF" stroke-width="1.5" stroke-linecap="round" stroke-linejoin="round"/>
<path d="M19.4983 12.375C19.4983 12.317 19.5 11.9754 19.4983 11.9509C19.4718 11.5754 19.1496 11.2762 18.7451 11.2516C18.7187 11.25 18.6875 11.25 18.625 11.25H16.6731C15.3348 11.25 14.25 12.2574 14.25 13.5C14.25 14.7426 15.3348 15.75 16.6731 15.75H18.625C18.6875 15.75 18.7187 15.75 18.7451 15.7484C19.1496 15.7238 19.4718 15.4246 19.4983 15.0491C19.5 15.0246 19.5 14.683 19.5 14.625" stroke="#4318FF" stroke-width="1.5" stroke-linecap="round"/>
<circle cx="16.5" cy="13.5" r="0.75" fill="#4318FF"/>
<path d="M10.5 19.5H12.75C15.5784 19.5 16.9926 19.5 17.8713 18.6213C18.4775 18.0152 18.6655 17.1542 18.7238 15.75M18.7238 11.25C18.6655 9.84577 18.4775 8.98481 17.8713 8.37868C16.9926 7.5 15.5784 7.5 12.75 7.5H10.5C7.67157 7.5 6.25736 7.5 5.37868 8.37868C4.5 9.25736 4.5 10.6716 4.5 13.5C4.5 16.3284 4.5 17.7426 5.37868 18.6213C5.86857 19.1112 6.52492 19.328 7.5 19.4239" stroke="#4318FF" stroke-width="1.5" stroke-linecap="round"/>
<path d="M7.5 7.5L10.3016 5.64235C11.0906 5.11922 12.1594 5.11922 12.9484 5.64235L15.75 7.5" stroke="#4318FF" stroke-width="1.5" stroke-linecap="round"/>
</svg>
