<svg width="35" height="34" viewBox="0 0 35 34" fill="none" xmlns="http://www.w3.org/2000/svg">
<g id="Badge Stats (Favorite)">
<g id="Background">
<rect id="Rectangle 25" width="34.3736" height="34" rx="17" fill="white"/>
</g>
<g id="Favorite Icon">
<path id="Vector" d="M22.9436 11.4004C20.9593 9.99151 18.509 10.649 17.1861 12.2614C15.8632 10.649 13.4129 9.98369 11.4286 11.4004C10.3763 12.1518 9.71487 13.4198 9.66977 14.7582C9.56454 17.7952 12.1502 20.2294 16.0962 23.963L16.1714 24.0334C16.7426 24.5735 17.6221 24.5735 18.1933 24.0256L18.276 23.9473C22.2221 20.2216 24.8002 17.7874 24.7025 14.7504C24.6574 13.4198 23.9959 12.1518 22.9436 11.4004ZM17.2613 22.7967L17.1861 22.875L17.1109 22.7967C13.5332 19.4232 11.173 17.1925 11.173 14.9304C11.173 13.365 12.3005 12.1909 13.8038 12.1909C14.9613 12.1909 16.0887 12.9658 16.4871 14.0381H17.8926C18.2835 12.9658 19.4109 12.1909 20.5685 12.1909C22.0717 12.1909 23.1992 13.365 23.1992 14.9304C23.1992 17.1925 20.8391 19.4232 17.2613 22.7967Z" fill="#4318FF"/>
</g>
</g>
</svg>
