<svg xmlns="http://www.w3.org/2000/svg" width="16" height="15" viewBox="0 0 16 15" fill="none">
<path d="M13.9436 1.4004C11.9593 -0.00848705 9.50899 0.648993 8.18611 2.26139C6.86323 0.648993 4.41291 -0.0163142 2.42859 1.4004C1.3763 2.15181 0.714866 3.4198 0.669768 4.75825C0.564539 7.79518 3.15016 10.2294 7.09624 13.963L7.1714 14.0334C7.74265 14.5735 8.62206 14.5735 9.1933 14.0256L9.27598 13.9473C13.2221 10.2216 15.8002 7.78735 15.7025 4.75042C15.6574 3.4198 14.9959 2.15181 13.9436 1.4004ZM8.26127 12.7967L8.18611 12.875L8.11095 12.7967C4.53317 9.42323 2.17304 7.19249 2.17304 4.93044C2.17304 3.36501 3.30049 2.19094 4.80376 2.19094C5.96127 2.19094 7.08872 2.96583 7.48709 4.03815H8.89264C9.28349 2.96583 10.4109 2.19094 11.5685 2.19094C13.0717 2.19094 14.1992 3.36501 14.1992 4.93044C14.1992 7.19249 11.8391 9.42323 8.26127 12.7967Z" fill="#4318FF"/>
</svg>